<svg viewBox="0 0 512 512" xmlns="http://www.w3.org/2000/svg">
    <path style="fill:#18181b;stroke:#eab308;stroke-width:24;fill-opacity:1;stroke-linecap:round;stroke-linejoin:round" d="M32 32h448v448H32z"/>
    <g aria-label="PS" style="fill:#eab308">
        <path d="M249.404 226.28q0 29.484-15.652 43.68-15.652 13.832-46.228 13.832h-37.856V382.8H118V128h68.796q30.94 0 46.592 13.832 16.016 13.468 16.016 42.952zm-31.668-44.772q0-13.832-6.552-20.02-6.188-6.188-20.02-6.188h-41.496v101.192h41.496q13.832 0 20.02-6.188 6.552-6.552 6.552-20.384zM401.596 320.92q0 30.94-17.108 46.592-16.744 15.288-48.412 15.288h-51.688v-27.664h55.328q13.468 0 21.84-8.008t8.372-19.292V289.98q0-10.92-5.824-17.472-5.46-6.916-16.744-6.916h-10.92q-26.936 0-42.588-15.652-15.652-16.016-15.652-46.228V189.88q0-30.94 16.744-46.228Q312.052 128 343.72 128h52.052v27.664H340.08q-13.468 0-21.84 8.008t-8.372 19.292v27.664q0 11.284 7.28 18.928 7.28 7.28 18.928 7.28h10.92q25.844 0 40.04 14.924 14.56 14.924 14.56 45.136z"/>
    </g>
</svg>